# xmcd
#
# Track frame offsets:
#	150
#	20340
#	36078
#	60855
#	80420
#	98870
#	112889
#	127820
#	144141
#	158821
#	170184
#	182334
#	196509
#	213214
#
# Disc length: 3071 seconds
#
# Revision: 3
# Processed by: cddbd v1.5.2PL0 Copyright (c) Steve Scherf et al.
# Submitted via: audiograbber 1.83.01
#
DISCID=a00bfd0e
DTITLE=Various Artist - Влюбени ноти
DYEAR=2007
DGENRE=Pop
TTITLE0=Caught In The Act - Babe
TTITLE1=Tom Jones - My Way
TTITLE2=Rouge Basier - La Boheme
TTITLE3=Stevie B. - Because I Love You
TTITLE4=Billie Davies - Nights In White Satin
TTITLE5=Edison Lighthouse - Love Grows
TTITLE6=Middle Of The Road - Solei, Soley
TTITLE7=Limahl - Too Shy
TTITLE8=Musikk feat. Eddie Chacon - Would I Lie To You
TTITLE9=Jack Jones - You're The Love Of My Life
TTITLE10=The Troggs - Love Is All Around
TTITLE11=Herman's Hermits - End Of The World
TTITLE12=Haddaway - Love Makes
TTITLE13=Groove Fondation feat. Linda Freeland - Aquarius
EXTD=
EXTT0=
EXTT1=
EXTT2=
EXTT3=
EXTT4=
EXTT5=
EXTT6=
EXTT7=
EXTT8=
EXTT9=
EXTT10=
EXTT11=
EXTT12=
EXTT13=
PLAYORDER=
